<mxfile host="app.diagrams.net" modified="2023-03-17T02:55:20.355Z" agent="5.0 (Windows NT 10.0; Win64; x64) AppleWebKit/537.36 (KHTML, like Gecko) Chrome/111.0.0.0 Safari/537.36" etag="4dJl-TBS6FVnlM1qZsNa" version="21.0.6" type="github">
  <diagram name="第 1 页" id="3dfWSaw11-exBqkh5bSi">
    <mxGraphModel dx="937" dy="1109" grid="1" gridSize="10" guides="1" tooltips="1" connect="1" arrows="1" fold="1" page="1" pageScale="1" pageWidth="827" pageHeight="1169" math="0" shadow="0">
      <root>
        <mxCell id="0" />
        <mxCell id="1" parent="0" />
        <mxCell id="s1kOQIanr0dHy5x6N4uy-1" value="" style="shape=curlyBracket;whiteSpace=wrap;html=1;rounded=1;labelPosition=left;verticalLabelPosition=middle;align=right;verticalAlign=middle;sketch=1;hachureGap=4;jiggle=2;curveFitting=1;fontFamily=Architects Daughter;fontSource=https%3A%2F%2Ffonts.googleapis.com%2Fcss%3Ffamily%3DArchitects%2BDaughter;fontSize=20;" vertex="1" parent="1">
          <mxGeometry x="80" y="260" width="90" height="270" as="geometry" />
        </mxCell>
        <mxCell id="s1kOQIanr0dHy5x6N4uy-2" value="与其他实现的比较" style="text;html=1;align=center;verticalAlign=middle;resizable=0;points=[];autosize=1;strokeColor=none;fillColor=none;fontSize=20;fontFamily=Architects Daughter;" vertex="1" parent="1">
          <mxGeometry x="180" y="240" width="180" height="40" as="geometry" />
        </mxCell>
        <mxCell id="s1kOQIanr0dHy5x6N4uy-3" value="" style="shape=curlyBracket;whiteSpace=wrap;html=1;rounded=1;labelPosition=left;verticalLabelPosition=middle;align=right;verticalAlign=middle;sketch=1;hachureGap=4;jiggle=2;curveFitting=1;fontFamily=Architects Daughter;fontSource=https%3A%2F%2Ffonts.googleapis.com%2Fcss%3Ffamily%3DArchitects%2BDaughter;fontSize=20;" vertex="1" parent="1">
          <mxGeometry x="370" y="200" width="20" height="120" as="geometry" />
        </mxCell>
        <mxCell id="s1kOQIanr0dHy5x6N4uy-6" value="" style="edgeStyle=orthogonalEdgeStyle;rounded=0;sketch=1;hachureGap=4;jiggle=2;curveFitting=1;orthogonalLoop=1;jettySize=auto;html=1;fontFamily=Architects Daughter;fontSource=https%3A%2F%2Ffonts.googleapis.com%2Fcss%3Ffamily%3DArchitects%2BDaughter;fontSize=16;" edge="1" parent="1" source="s1kOQIanr0dHy5x6N4uy-4" target="s1kOQIanr0dHy5x6N4uy-5">
          <mxGeometry relative="1" as="geometry" />
        </mxCell>
        <mxCell id="s1kOQIanr0dHy5x6N4uy-4" value="GPU B+ tree" style="text;html=1;align=center;verticalAlign=middle;resizable=0;points=[];autosize=1;strokeColor=none;fillColor=none;fontSize=20;fontFamily=Architects Daughter;" vertex="1" parent="1">
          <mxGeometry x="400" y="180" width="140" height="40" as="geometry" />
        </mxCell>
        <mxCell id="s1kOQIanr0dHy5x6N4uy-5" value="多列结果 merge" style="text;html=1;align=center;verticalAlign=middle;resizable=0;points=[];autosize=1;strokeColor=none;fillColor=none;fontSize=20;fontFamily=Architects Daughter;" vertex="1" parent="1">
          <mxGeometry x="605" y="180" width="170" height="40" as="geometry" />
        </mxCell>
        <mxCell id="s1kOQIanr0dHy5x6N4uy-9" value="" style="edgeStyle=orthogonalEdgeStyle;rounded=0;sketch=1;hachureGap=4;jiggle=2;curveFitting=1;orthogonalLoop=1;jettySize=auto;html=1;fontFamily=Architects Daughter;fontSource=https%3A%2F%2Ffonts.googleapis.com%2Fcss%3Ffamily%3DArchitects%2BDaughter;fontSize=16;" edge="1" parent="1" source="s1kOQIanr0dHy5x6N4uy-7" target="s1kOQIanr0dHy5x6N4uy-8">
          <mxGeometry relative="1" as="geometry" />
        </mxCell>
        <mxCell id="s1kOQIanr0dHy5x6N4uy-7" value="RTIndex" style="text;html=1;align=center;verticalAlign=middle;resizable=0;points=[];autosize=1;strokeColor=none;fillColor=none;fontSize=20;fontFamily=Architects Daughter;" vertex="1" parent="1">
          <mxGeometry x="410" y="240" width="90" height="40" as="geometry" />
        </mxCell>
        <mxCell id="s1kOQIanr0dHy5x6N4uy-8" value="一列比较/三列比较" style="text;html=1;align=center;verticalAlign=middle;resizable=0;points=[];autosize=1;strokeColor=none;fillColor=none;fontSize=20;fontFamily=Architects Daughter;" vertex="1" parent="1">
          <mxGeometry x="580" y="240" width="190" height="40" as="geometry" />
        </mxCell>
        <mxCell id="s1kOQIanr0dHy5x6N4uy-10" value="CPU BIndex" style="text;html=1;align=center;verticalAlign=middle;resizable=0;points=[];autosize=1;strokeColor=none;fillColor=none;fontSize=20;fontFamily=Architects Daughter;" vertex="1" parent="1">
          <mxGeometry x="400" y="290" width="130" height="40" as="geometry" />
        </mxCell>
        <mxCell id="s1kOQIanr0dHy5x6N4uy-11" value="与自己比较" style="text;html=1;strokeColor=none;fillColor=none;align=center;verticalAlign=middle;whiteSpace=wrap;rounded=0;fontSize=20;fontFamily=Architects Daughter;" vertex="1" parent="1">
          <mxGeometry x="190" y="510" width="120" height="30" as="geometry" />
        </mxCell>
        <mxCell id="s1kOQIanr0dHy5x6N4uy-12" value="" style="shape=curlyBracket;whiteSpace=wrap;html=1;rounded=1;labelPosition=left;verticalLabelPosition=middle;align=right;verticalAlign=middle;sketch=1;hachureGap=4;jiggle=2;curveFitting=1;fontFamily=Architects Daughter;fontSource=https%3A%2F%2Ffonts.googleapis.com%2Fcss%3Ffamily%3DArchitects%2BDaughter;fontSize=20;" vertex="1" parent="1">
          <mxGeometry x="370" y="465" width="20" height="120" as="geometry" />
        </mxCell>
        <mxCell id="s1kOQIanr0dHy5x6N4uy-14" value="无filter" style="text;html=1;align=center;verticalAlign=middle;resizable=0;points=[];autosize=1;strokeColor=none;fillColor=none;fontSize=20;fontFamily=Architects Daughter;" vertex="1" parent="1">
          <mxGeometry x="390" y="440" width="90" height="40" as="geometry" />
        </mxCell>
        <mxCell id="s1kOQIanr0dHy5x6N4uy-15" value="加filter" style="text;html=1;align=center;verticalAlign=middle;resizable=0;points=[];autosize=1;strokeColor=none;fillColor=none;fontSize=20;fontFamily=Architects Daughter;" vertex="1" parent="1">
          <mxGeometry x="385" y="500" width="90" height="40" as="geometry" />
        </mxCell>
        <mxCell id="s1kOQIanr0dHy5x6N4uy-16" value="加优化" style="text;html=1;align=center;verticalAlign=middle;resizable=0;points=[];autosize=1;strokeColor=none;fillColor=none;fontSize=20;fontFamily=Architects Daughter;" vertex="1" parent="1">
          <mxGeometry x="390" y="564.5" width="80" height="40" as="geometry" />
        </mxCell>
        <mxCell id="s1kOQIanr0dHy5x6N4uy-17" value="分别会有多少性能提升" style="shape=process;whiteSpace=wrap;html=1;backgroundOutline=1;sketch=1;hachureGap=4;jiggle=2;curveFitting=1;fontFamily=Architects Daughter;fontSource=https%3A%2F%2Ffonts.googleapis.com%2Fcss%3Ffamily%3DArchitects%2BDaughter;fontSize=20;" vertex="1" parent="1">
          <mxGeometry x="380" y="610" width="120" height="60" as="geometry" />
        </mxCell>
        <mxCell id="s1kOQIanr0dHy5x6N4uy-18" value="" style="shape=curlyBracket;whiteSpace=wrap;html=1;rounded=1;labelPosition=left;verticalLabelPosition=middle;align=right;verticalAlign=middle;sketch=1;hachureGap=4;jiggle=2;curveFitting=1;fontFamily=Architects Daughter;fontSource=https%3A%2F%2Ffonts.googleapis.com%2Fcss%3Ffamily%3DArchitects%2BDaughter;fontSize=20;" vertex="1" parent="1">
          <mxGeometry x="520" y="525" width="20" height="120" as="geometry" />
        </mxCell>
        <mxCell id="s1kOQIanr0dHy5x6N4uy-19" value="不同数据分布" style="text;html=1;align=center;verticalAlign=middle;resizable=0;points=[];autosize=1;strokeColor=none;fillColor=none;fontSize=20;fontFamily=Architects Daughter;" vertex="1" parent="1">
          <mxGeometry x="550" y="510" width="140" height="40" as="geometry" />
        </mxCell>
        <mxCell id="s1kOQIanr0dHy5x6N4uy-20" value="调整参数" style="text;html=1;align=center;verticalAlign=middle;resizable=0;points=[];autosize=1;strokeColor=none;fillColor=none;fontSize=20;fontFamily=Architects Daughter;" vertex="1" parent="1">
          <mxGeometry x="550" y="620" width="100" height="40" as="geometry" />
        </mxCell>
        <mxCell id="s1kOQIanr0dHy5x6N4uy-21" value="" style="shape=curlyBracket;whiteSpace=wrap;html=1;rounded=1;labelPosition=left;verticalLabelPosition=middle;align=right;verticalAlign=middle;sketch=1;hachureGap=4;jiggle=2;curveFitting=1;fontFamily=Architects Daughter;fontSource=https%3A%2F%2Ffonts.googleapis.com%2Fcss%3Ffamily%3DArchitects%2BDaughter;fontSize=20;" vertex="1" parent="1">
          <mxGeometry x="660" y="580" width="20" height="120" as="geometry" />
        </mxCell>
        <mxCell id="s1kOQIanr0dHy5x6N4uy-23" value="ray interval" style="text;html=1;align=center;verticalAlign=middle;resizable=0;points=[];autosize=1;strokeColor=none;fillColor=none;fontSize=20;fontFamily=Architects Daughter;" vertex="1" parent="1">
          <mxGeometry x="680" y="560" width="130" height="40" as="geometry" />
        </mxCell>
        <mxCell id="s1kOQIanr0dHy5x6N4uy-24" value="ray length" style="text;html=1;align=center;verticalAlign=middle;resizable=0;points=[];autosize=1;strokeColor=none;fillColor=none;fontSize=20;fontFamily=Architects Daughter;" vertex="1" parent="1">
          <mxGeometry x="680" y="680" width="120" height="40" as="geometry" />
        </mxCell>
      </root>
    </mxGraphModel>
  </diagram>
</mxfile>
